<svg xmlns="http://www.w3.org/2000/svg" width="44" height="60">
<defs><style type="text/css" id="current-color-scheme">
.ColorScheme-Background { color:#030303; }
.ColorScheme-Text { color:#e8e4dd; }
</style></defs>
<g id="topleft"><path d="M0,14 L0,8 C0,3.582 3.582,0 8,0 L14,0 L14,14 Z" class="ColorScheme-Background" style="fill:currentColor"/><path d="M0,14 L0,8 C0,3.582 3.582,0 8,0 L14,0 L14,14 Z M1,14 L1,8 C1,4.135 4.135,1 8,1 L14,1 L14,14 Z" fill-rule="evenodd" class="ColorScheme-Text" style="fill:currentColor" opacity="0.05"/></g>
<g id="topright"><path d="M30,0 L36,0 C40.418,0 44,3.582 44,8 L44,14 L30,14 Z" class="ColorScheme-Background" style="fill:currentColor"/><path d="M30,0 L36,0 C40.418,0 44,3.582 44,8 L44,14 L30,14 Z M30,1 L36,1 C39.865,1 43,4.135 43,8 L43,14 L30,14 Z" fill-rule="evenodd" class="ColorScheme-Text" style="fill:currentColor" opacity="0.05"/></g>
<g id="bottomleft"><path d="M0,30 L14,30 L14,44 L8,44 C3.582,44 0,40.418 0,36 Z" class="ColorScheme-Background" style="fill:currentColor"/><path d="M0,30 L14,30 L14,44 L8,44 C3.582,44 0,40.418 0,36 Z M1,30 L14,30 L14,43 L8,43 C4.135,43 1,39.865 1,36 Z" fill-rule="evenodd" class="ColorScheme-Text" style="fill:currentColor" opacity="0.05"/></g>
<g id="bottomright"><path d="M30,30 L44,30 L44,36 C44,40.418 40.418,44 36,44 L30,44 Z" class="ColorScheme-Background" style="fill:currentColor"/><path d="M30,30 L44,30 L44,36 C44,40.418 40.418,44 36,44 L30,44 Z M30,30 L43,30 L43,36 C43,39.865 39.865,43 36,43 L30,43 Z" fill-rule="evenodd" class="ColorScheme-Text" style="fill:currentColor" opacity="0.05"/></g>
<g id="top"><rect x="14" y="0" width="16" height="14" class="ColorScheme-Background" style="fill:currentColor"/><rect x="14" y="0" width="16" height="1" class="ColorScheme-Text" style="fill:currentColor" opacity="0.05"/></g>
<g id="bottom"><rect x="14" y="30" width="16" height="14" class="ColorScheme-Background" style="fill:currentColor"/><rect x="14" y="43" width="16" height="1" class="ColorScheme-Text" style="fill:currentColor" opacity="0.05"/></g>
<g id="left"><rect x="0" y="14" width="14" height="16" class="ColorScheme-Background" style="fill:currentColor"/><rect x="0" y="14" width="1" height="16" class="ColorScheme-Text" style="fill:currentColor" opacity="0.05"/></g>
<g id="right"><rect x="30" y="14" width="14" height="16" class="ColorScheme-Background" style="fill:currentColor"/><rect x="43" y="14" width="1" height="16" class="ColorScheme-Text" style="fill:currentColor" opacity="0.05"/></g>
<rect id="center" x="14" y="14" width="16" height="16" class="ColorScheme-Background" style="fill:currentColor"/>
<g id="mask-topleft"><path d="M0,14 L0,8 L1,8 C1,4.135 4.135,1 8,1 L8,0 L14,0 L14,14 Z" style="fill:#ffffff"/></g>
<g id="mask-topright"><path d="M30,0 L36,0 L36,1 C39.865,1 43,4.135 43,8 L44,8 L44,14 L30,14 Z" style="fill:#ffffff"/></g>
<g id="mask-bottomleft"><path d="M0,30 L14,30 L14,44 L8,44 L8,43 C4.135,43 1,39.865 1,36 L0,36 Z" style="fill:#ffffff"/></g>
<g id="mask-bottomright"><path d="M30,30 L44,30 L44,36 L43,36 C43,39.865 39.865,43 36,43 L36,44 L30,44 Z" style="fill:#ffffff"/></g>
<rect id="mask-top" x="14" y="0" width="16" height="14" style="fill:#ffffff"/>
<rect id="mask-bottom" x="14" y="30" width="16" height="14" style="fill:#ffffff"/>
<rect id="mask-left" x="0" y="14" width="14" height="16" style="fill:#ffffff"/>
<rect id="mask-right" x="30" y="14" width="14" height="16" style="fill:#ffffff"/>
<rect id="mask-center" x="14" y="14" width="16" height="16" style="fill:#ffffff"/>
<rect id="shadow-topleft" x="0" y="0" width="14" height="14" style="fill:none"/>
<rect id="shadow-topright" x="30" y="0" width="14" height="14" style="fill:none"/>
<rect id="shadow-bottomleft" x="0" y="30" width="14" height="14" style="fill:none"/>
<rect id="shadow-bottomright" x="30" y="30" width="14" height="14" style="fill:none"/>
<rect id="shadow-top" x="14" y="0" width="16" height="14" style="fill:none"/>
<rect id="shadow-bottom" x="14" y="30" width="16" height="14" style="fill:none"/>
<rect id="shadow-left" x="0" y="14" width="14" height="16" style="fill:none"/>
<rect id="shadow-right" x="30" y="14" width="14" height="16" style="fill:none"/>
<rect id="shadow-center" x="14" y="14" width="16" height="16" style="fill:none"/>
<rect id="shadow-hint-top-margin" x="0" y="48" width="4" height="4" style="fill:none"/>
<rect id="shadow-hint-bottom-margin" x="10" y="48" width="4" height="4" style="fill:none"/>
<rect id="shadow-hint-left-margin" x="20" y="48" width="4" height="4" style="fill:none"/>
<rect id="shadow-hint-right-margin" x="30" y="48" width="4" height="4" style="fill:none"/>
<rect id="hint-top-margin" x="0" y="48" width="4" height="4" style="fill:none"/>
<rect id="hint-bottom-margin" x="10" y="48" width="4" height="4" style="fill:none"/>
<rect id="hint-left-margin" x="20" y="48" width="4" height="4" style="fill:none"/>
<rect id="hint-right-margin" x="30" y="48" width="4" height="4" style="fill:none"/>
</svg>
